<mxfile host="65bd71144e">
    <diagram id="j0MurIvfFRvg0m8raRhp" name="Page-1">
        <mxGraphModel dx="1308" dy="922" grid="1" gridSize="10" guides="1" tooltips="1" connect="1" arrows="1" fold="1" page="1" pageScale="1" pageWidth="1169" pageHeight="1654" math="0" shadow="0">
            <root>
                <mxCell id="0"/>
                <mxCell id="1" parent="0"/>
                <mxCell id="6" value="PCS Material Center" style="swimlane;startSize=40;fontSize=20;fontFamily=Arial;fontSource=https%3A%2F%2Ffonts.googleapis.com%2Fcss%3Ffamily%3DArial;" vertex="1" parent="1">
                    <mxGeometry x="40" y="40" width="1080" height="1600" as="geometry"/>
                </mxCell>
                <mxCell id="9" style="edgeStyle=none;html=1;exitX=0.5;exitY=1;exitDx=0;exitDy=0;fontFamily=Arial;fontSource=https%3A%2F%2Ffonts.googleapis.com%2Fcss%3Ffamily%3DArial;fontSize=18;" edge="1" parent="6" source="7" target="8">
                    <mxGeometry relative="1" as="geometry"/>
                </mxCell>
                <mxCell id="7" value="&lt;font style=&quot;font-size: 18px;&quot;&gt;MTO &lt;br&gt;(Material Take Off)&lt;/font&gt;" style="rounded=1;whiteSpace=wrap;html=1;absoluteArcSize=1;arcSize=14;strokeWidth=1;fontFamily=Arial;fontSource=https%3A%2F%2Ffonts.googleapis.com%2Fcss%3Ffamily%3DArial;fontSize=20;" vertex="1" parent="6">
                    <mxGeometry x="40" y="150" width="160" height="60" as="geometry"/>
                </mxCell>
                <mxCell id="8" value="&lt;span style=&quot;font-size: 18px;&quot;&gt;Order List&lt;/span&gt;" style="rounded=1;whiteSpace=wrap;html=1;absoluteArcSize=1;arcSize=14;strokeWidth=1;fontFamily=Arial;fontSource=https%3A%2F%2Ffonts.googleapis.com%2Fcss%3Ffamily%3DArial;fontSize=20;" vertex="1" parent="6">
                    <mxGeometry x="40" y="250" width="160" height="60" as="geometry"/>
                </mxCell>
                <mxCell id="35" style="edgeStyle=orthogonalEdgeStyle;html=1;exitX=0.5;exitY=1;exitDx=0;exitDy=0;entryX=0.5;entryY=0;entryDx=0;entryDy=0;fontFamily=Arial;fontSource=https%3A%2F%2Ffonts.googleapis.com%2Fcss%3Ffamily%3DArial;fontSize=18;elbow=vertical;" edge="1" parent="6" source="10" target="33">
                    <mxGeometry relative="1" as="geometry"/>
                </mxCell>
                <mxCell id="10" value="&lt;span style=&quot;font-size: 18px;&quot;&gt;Material Stock&lt;/span&gt;" style="rounded=1;whiteSpace=wrap;html=1;absoluteArcSize=1;arcSize=14;strokeWidth=1;fontFamily=Arial;fontSource=https%3A%2F%2Ffonts.googleapis.com%2Fcss%3Ffamily%3DArial;fontSize=20;" vertex="1" parent="6">
                    <mxGeometry x="440" y="560" width="200" height="60" as="geometry"/>
                </mxCell>
                <mxCell id="11" style="edgeStyle=orthogonalEdgeStyle;html=1;exitX=0.5;exitY=1;exitDx=0;exitDy=0;fontFamily=Arial;fontSource=https%3A%2F%2Ffonts.googleapis.com%2Fcss%3Ffamily%3DArial;fontSize=18;elbow=vertical;entryX=0.5;entryY=0;entryDx=0;entryDy=0;entryPerimeter=0;" edge="1" parent="6" source="8" target="85">
                    <mxGeometry relative="1" as="geometry">
                        <mxPoint x="150" y="520" as="targetPoint"/>
                        <Array as="points"/>
                    </mxGeometry>
                </mxCell>
                <mxCell id="14" style="html=1;exitX=0.5;exitY=1;exitDx=0;exitDy=0;entryX=0.5;entryY=0;entryDx=0;entryDy=0;fontFamily=Arial;fontSource=https%3A%2F%2Ffonts.googleapis.com%2Fcss%3Ffamily%3DArial;fontSize=18;elbow=vertical;" edge="1" parent="6" source="12" target="13">
                    <mxGeometry relative="1" as="geometry"/>
                </mxCell>
                <mxCell id="12" value="&lt;span style=&quot;font-size: 18px;&quot;&gt;Packing List&lt;/span&gt;" style="rounded=1;whiteSpace=wrap;html=1;absoluteArcSize=1;arcSize=14;strokeWidth=1;fontFamily=Arial;fontSource=https%3A%2F%2Ffonts.googleapis.com%2Fcss%3Ffamily%3DArial;fontSize=20;" vertex="1" parent="6">
                    <mxGeometry x="440" y="250" width="200" height="60" as="geometry"/>
                </mxCell>
                <mxCell id="16" style="edgeStyle=none;html=1;exitX=0.5;exitY=1;exitDx=0;exitDy=0;entryX=0.5;entryY=0;entryDx=0;entryDy=0;entryPerimeter=0;fontFamily=Arial;fontSource=https%3A%2F%2Ffonts.googleapis.com%2Fcss%3Ffamily%3DArial;fontSize=18;elbow=vertical;" edge="1" parent="6" source="13" target="15">
                    <mxGeometry relative="1" as="geometry"/>
                </mxCell>
                <mxCell id="13" value="&lt;span style=&quot;font-size: 18px;&quot;&gt;Material Receive&lt;br&gt;(MRR)&lt;br&gt;&lt;/span&gt;" style="rounded=1;whiteSpace=wrap;html=1;absoluteArcSize=1;arcSize=14;strokeWidth=1;fontFamily=Arial;fontSource=https%3A%2F%2Ffonts.googleapis.com%2Fcss%3Ffamily%3DArial;fontSize=20;" vertex="1" parent="6">
                    <mxGeometry x="440" y="340" width="200" height="60" as="geometry"/>
                </mxCell>
                <mxCell id="17" style="edgeStyle=none;html=1;exitX=0.5;exitY=1;exitDx=0;exitDy=0;exitPerimeter=0;fontFamily=Arial;fontSource=https%3A%2F%2Ffonts.googleapis.com%2Fcss%3Ffamily%3DArial;fontSize=18;elbow=vertical;" edge="1" parent="6" source="15" target="10">
                    <mxGeometry relative="1" as="geometry"/>
                </mxCell>
                <mxCell id="19" value="Y" style="edgeLabel;html=1;align=center;verticalAlign=middle;resizable=0;points=[];fontSize=18;fontFamily=Arial;" vertex="1" connectable="0" parent="17">
                    <mxGeometry x="-0.1662" relative="1" as="geometry">
                        <mxPoint as="offset"/>
                    </mxGeometry>
                </mxCell>
                <mxCell id="21" style="edgeStyle=none;html=1;exitX=0;exitY=0.5;exitDx=0;exitDy=0;exitPerimeter=0;entryX=1;entryY=0.5;entryDx=0;entryDy=0;fontFamily=Arial;fontSource=https%3A%2F%2Ffonts.googleapis.com%2Fcss%3Ffamily%3DArial;fontSize=18;elbow=vertical;" edge="1" parent="6" source="15" target="20">
                    <mxGeometry relative="1" as="geometry"/>
                </mxCell>
                <mxCell id="22" value="N" style="edgeLabel;html=1;align=center;verticalAlign=middle;resizable=0;points=[];fontSize=18;fontFamily=Arial;" vertex="1" connectable="0" parent="21">
                    <mxGeometry x="-0.1282" relative="1" as="geometry">
                        <mxPoint as="offset"/>
                    </mxGeometry>
                </mxCell>
                <mxCell id="15" value="Inspection" style="strokeWidth=1;html=1;shape=mxgraph.flowchart.decision;whiteSpace=wrap;fontFamily=Arial;fontSource=https%3A%2F%2Ffonts.googleapis.com%2Fcss%3Ffamily%3DArial;fontSize=18;" vertex="1" parent="6">
                    <mxGeometry x="440" y="450" width="200" height="50" as="geometry"/>
                </mxCell>
                <mxCell id="20" value="&lt;span style=&quot;font-size: 18px;&quot;&gt;Material Receive&lt;br&gt;(RDR)&lt;br&gt;&lt;/span&gt;" style="rounded=1;whiteSpace=wrap;html=1;absoluteArcSize=1;arcSize=14;strokeWidth=1;fontFamily=Arial;fontSource=https%3A%2F%2Ffonts.googleapis.com%2Fcss%3Ffamily%3DArial;fontSize=20;" vertex="1" parent="6">
                    <mxGeometry x="210" y="445" width="150" height="60" as="geometry"/>
                </mxCell>
                <mxCell id="30" style="edgeStyle=orthogonalEdgeStyle;html=1;exitX=0;exitY=0.5;exitDx=0;exitDy=0;entryX=1;entryY=0.5;entryDx=0;entryDy=0;fontFamily=Arial;fontSource=https%3A%2F%2Ffonts.googleapis.com%2Fcss%3Ffamily%3DArial;fontSize=18;elbow=vertical;" edge="1" parent="6" source="24" target="7">
                    <mxGeometry relative="1" as="geometry"/>
                </mxCell>
                <mxCell id="104" style="edgeStyle=elbowEdgeStyle;html=1;exitX=0.5;exitY=1;exitDx=0;exitDy=0;fontFamily=Arial;fontSource=https%3A%2F%2Ffonts.googleapis.com%2Fcss%3Ffamily%3DArial;fontSize=18;" edge="1" parent="6" source="24" target="12">
                    <mxGeometry relative="1" as="geometry"/>
                </mxCell>
                <mxCell id="24" value="&lt;span style=&quot;font-size: 18px;&quot;&gt;Material Code&lt;/span&gt;" style="rounded=1;whiteSpace=wrap;html=1;absoluteArcSize=1;arcSize=14;strokeWidth=1;fontFamily=Arial;fontSource=https%3A%2F%2Ffonts.googleapis.com%2Fcss%3Ffamily%3DArial;fontSize=20;" vertex="1" parent="6">
                    <mxGeometry x="440" y="150" width="200" height="60" as="geometry"/>
                </mxCell>
                <mxCell id="27" style="edgeStyle=orthogonalEdgeStyle;html=1;exitX=0.5;exitY=0;exitDx=0;exitDy=0;fontFamily=Arial;fontSource=https%3A%2F%2Ffonts.googleapis.com%2Fcss%3Ffamily%3DArial;fontSize=18;elbow=vertical;entryX=0;entryY=0.5;entryDx=0;entryDy=0;" edge="1" parent="6" source="20" target="13">
                    <mxGeometry relative="1" as="geometry">
                        <mxPoint x="390" y="350" as="targetPoint"/>
                        <Array as="points">
                            <mxPoint x="285" y="370"/>
                        </Array>
                    </mxGeometry>
                </mxCell>
                <mxCell id="29" style="edgeStyle=orthogonalEdgeStyle;html=1;exitX=0.5;exitY=0.5;exitDx=0;exitDy=15;exitPerimeter=0;entryX=0.5;entryY=0;entryDx=0;entryDy=0;fontFamily=Arial;fontSource=https%3A%2F%2Ffonts.googleapis.com%2Fcss%3Ffamily%3DArial;fontSize=18;elbow=vertical;" edge="1" parent="6" source="96" target="24">
                    <mxGeometry relative="1" as="geometry">
                        <mxPoint x="540" y="110" as="sourcePoint"/>
                    </mxGeometry>
                </mxCell>
                <mxCell id="33" value="&lt;span style=&quot;font-size: 18px;&quot;&gt;Material Request&lt;br&gt;(MIR)&lt;br&gt;&lt;/span&gt;" style="rounded=1;whiteSpace=wrap;html=1;absoluteArcSize=1;arcSize=14;strokeWidth=1;fontFamily=Arial;fontSource=https%3A%2F%2Ffonts.googleapis.com%2Fcss%3Ffamily%3DArial;fontSize=20;" vertex="1" parent="6">
                    <mxGeometry x="440" y="720" width="200" height="60" as="geometry"/>
                </mxCell>
                <mxCell id="37" value="&lt;span style=&quot;font-size: 18px;&quot;&gt;Request By Drawing&amp;nbsp;&lt;br&gt;&lt;/span&gt;" style="rounded=1;whiteSpace=wrap;html=1;absoluteArcSize=1;arcSize=14;strokeWidth=1;fontFamily=Arial;fontSource=https%3A%2F%2Ffonts.googleapis.com%2Fcss%3Ffamily%3DArial;fontSize=20;" vertex="1" parent="6">
                    <mxGeometry x="580" y="800" width="190" height="60" as="geometry"/>
                </mxCell>
                <mxCell id="74" style="edgeStyle=orthogonalEdgeStyle;html=1;exitX=0.5;exitY=1;exitDx=0;exitDy=0;fontFamily=Arial;fontSource=https%3A%2F%2Ffonts.googleapis.com%2Fcss%3Ffamily%3DArial;fontSize=18;elbow=vertical;entryX=0;entryY=0.5;entryDx=0;entryDy=0;" edge="1" parent="6" source="71" target="73">
                    <mxGeometry relative="1" as="geometry">
                        <mxPoint x="380" y="960" as="targetPoint"/>
                        <Array as="points">
                            <mxPoint x="295" y="1130"/>
                        </Array>
                    </mxGeometry>
                </mxCell>
                <mxCell id="71" value="&lt;span style=&quot;font-size: 18px;&quot;&gt;Matching&amp;nbsp;&lt;br&gt;&lt;/span&gt;" style="rounded=1;whiteSpace=wrap;html=1;absoluteArcSize=1;arcSize=14;strokeWidth=1;fontFamily=Arial;fontSource=https%3A%2F%2Ffonts.googleapis.com%2Fcss%3Ffamily%3DArial;fontSize=20;" vertex="1" parent="6">
                    <mxGeometry x="200" y="960" width="190" height="60" as="geometry"/>
                </mxCell>
                <mxCell id="73" value="&lt;span style=&quot;font-size: 18px;&quot;&gt;Material Issue&lt;br&gt;(MIO)&lt;br&gt;&lt;/span&gt;" style="rounded=1;whiteSpace=wrap;html=1;absoluteArcSize=1;arcSize=14;strokeWidth=1;fontFamily=Arial;fontSource=https%3A%2F%2Ffonts.googleapis.com%2Fcss%3Ffamily%3DArial;fontSize=20;" vertex="1" parent="6">
                    <mxGeometry x="445" y="1100" width="190" height="60" as="geometry"/>
                </mxCell>
                <mxCell id="95" style="edgeStyle=elbowEdgeStyle;html=1;exitX=0.5;exitY=1;exitDx=0;exitDy=0;entryX=0.5;entryY=0.5;entryDx=0;entryDy=-20;entryPerimeter=0;fontFamily=Arial;fontSource=https%3A%2F%2Ffonts.googleapis.com%2Fcss%3Ffamily%3DArial;fontSize=18;" edge="1" parent="6" source="83" target="94">
                    <mxGeometry relative="1" as="geometry">
                        <Array as="points">
                            <mxPoint x="540" y="1300"/>
                        </Array>
                    </mxGeometry>
                </mxCell>
                <mxCell id="83" value="&lt;span style=&quot;font-size: 18px;&quot;&gt;Remain&lt;br&gt;&lt;/span&gt;" style="rounded=1;whiteSpace=wrap;html=1;absoluteArcSize=1;arcSize=14;strokeWidth=1;fontFamily=Arial;fontSource=https%3A%2F%2Ffonts.googleapis.com%2Fcss%3Ffamily%3DArial;fontSize=20;" vertex="1" parent="6">
                    <mxGeometry x="445" y="1220" width="190" height="60" as="geometry"/>
                </mxCell>
                <mxCell id="82" style="edgeStyle=orthogonalEdgeStyle;html=1;exitX=0.5;exitY=1;exitDx=0;exitDy=0;fontFamily=Arial;fontSource=https%3A%2F%2Ffonts.googleapis.com%2Fcss%3Ffamily%3DArial;fontSize=18;elbow=vertical;entryX=0.5;entryY=0;entryDx=0;entryDy=0;" edge="1" parent="6" source="73" target="83">
                    <mxGeometry relative="1" as="geometry">
                        <mxPoint x="130.53846153846143" y="1120" as="targetPoint"/>
                        <mxPoint x="295" y="1130" as="sourcePoint"/>
                    </mxGeometry>
                </mxCell>
                <mxCell id="84" style="edgeStyle=orthogonalEdgeStyle;html=1;exitX=0;exitY=0.5;exitDx=0;exitDy=0;fontFamily=Arial;fontSource=https%3A%2F%2Ffonts.googleapis.com%2Fcss%3Ffamily%3DArial;fontSize=18;entryX=0.5;entryY=1;entryDx=0;entryDy=0;entryPerimeter=0;" edge="1" parent="6" source="83" target="85">
                    <mxGeometry relative="1" as="geometry">
                        <mxPoint x="110" y="620" as="targetPoint"/>
                        <Array as="points">
                            <mxPoint x="120" y="1250"/>
                        </Array>
                    </mxGeometry>
                </mxCell>
                <mxCell id="86" style="edgeStyle=orthogonalEdgeStyle;html=1;exitX=1;exitY=0.5;exitDx=0;exitDy=0;exitPerimeter=0;entryX=0;entryY=0.5;entryDx=0;entryDy=0;fontFamily=Arial;fontSource=https%3A%2F%2Ffonts.googleapis.com%2Fcss%3Ffamily%3DArial;fontSize=18;" edge="1" parent="6" source="85" target="10">
                    <mxGeometry relative="1" as="geometry"/>
                </mxCell>
                <mxCell id="85" value="" style="verticalLabelPosition=bottom;verticalAlign=top;html=1;shape=mxgraph.flowchart.on-page_reference;fontFamily=Arial;fontSource=https%3A%2F%2Ffonts.googleapis.com%2Fcss%3Ffamily%3DArial;fontSize=18;" vertex="1" parent="6">
                    <mxGeometry x="101.25" y="570" width="37.5" height="40" as="geometry"/>
                </mxCell>
                <mxCell id="89" style="edgeStyle=orthogonalEdgeStyle;html=1;exitX=0.5;exitY=1;exitDx=0;exitDy=0;entryX=0.5;entryY=0;entryDx=0;entryDy=0;fontFamily=Arial;fontSource=https%3A%2F%2Ffonts.googleapis.com%2Fcss%3Ffamily%3DArial;fontSize=18;" edge="1" parent="6" source="87" target="88">
                    <mxGeometry relative="1" as="geometry"/>
                </mxCell>
                <mxCell id="87" value="&lt;span style=&quot;font-size: 18px;&quot;&gt;DO&lt;br&gt;&lt;/span&gt;" style="rounded=1;whiteSpace=wrap;html=1;absoluteArcSize=1;arcSize=14;strokeWidth=1;fontFamily=Arial;fontSource=https%3A%2F%2Ffonts.googleapis.com%2Fcss%3Ffamily%3DArial;fontSize=20;" vertex="1" parent="6">
                    <mxGeometry x="840" y="150" width="160" height="60" as="geometry"/>
                </mxCell>
                <mxCell id="88" value="&lt;span style=&quot;font-size: 18px;&quot;&gt;DO Receive&lt;br&gt;&lt;/span&gt;" style="rounded=1;whiteSpace=wrap;html=1;absoluteArcSize=1;arcSize=14;strokeWidth=1;fontFamily=Arial;fontSource=https%3A%2F%2Ffonts.googleapis.com%2Fcss%3Ffamily%3DArial;fontSize=20;" vertex="1" parent="6">
                    <mxGeometry x="840" y="250" width="160" height="60" as="geometry"/>
                </mxCell>
                <mxCell id="90" style="edgeStyle=elbowEdgeStyle;html=1;exitX=0.5;exitY=1;exitDx=0;exitDy=0;fontFamily=Arial;fontSource=https%3A%2F%2Ffonts.googleapis.com%2Fcss%3Ffamily%3DArial;fontSize=18;entryX=1;entryY=0.5;entryDx=0;entryDy=0;" edge="1" parent="6" source="88" target="10">
                    <mxGeometry relative="1" as="geometry">
                        <mxPoint x="710" y="590" as="targetPoint"/>
                        <Array as="points">
                            <mxPoint x="920" y="460"/>
                        </Array>
                    </mxGeometry>
                </mxCell>
                <mxCell id="94" value="End" style="html=1;dashed=0;whitespace=wrap;shape=mxgraph.dfd.start;fontFamily=Arial;fontSource=https%3A%2F%2Ffonts.googleapis.com%2Fcss%3Ffamily%3DArial;fontSize=18;" vertex="1" parent="6">
                    <mxGeometry x="480" y="1320" width="120" height="40" as="geometry"/>
                </mxCell>
                <mxCell id="96" value="Start" style="html=1;dashed=0;whitespace=wrap;shape=mxgraph.dfd.start;strokeWidth=1;fontFamily=Arial;fontSource=https%3A%2F%2Ffonts.googleapis.com%2Fcss%3Ffamily%3DArial;fontSize=18;" vertex="1" parent="6">
                    <mxGeometry x="480" y="70" width="120" height="30" as="geometry"/>
                </mxCell>
                <mxCell id="98" value="" style="shape=image;imageAspect=0;aspect=fixed;verticalLabelPosition=bottom;verticalAlign=top;strokeWidth=1;fontFamily=Arial;fontSource=https%3A%2F%2Ffonts.googleapis.com%2Fcss%3Ffamily%3DArial;fontSize=18;image=data:image/png,iVBORw0KGgoAAAANSUhEUgAAAHMAAABCCAMAAABTuxncAAAAz1BMVEUiInUkJHYmJngpKXktLXsuLnwyMn4zM4A1NYE5OYQ+PoZGRoxNTZBVVZVZWZdbW5hjY51lZZ5wcKZ1dah4eKt5eax8fK3tDRbtDxjtERntFh3uGiLuHCTwNTzwPkTxQknxRUzxSVDyTlPyUFbyVl3zWmDzZGqEhLKNjbiUlLyiosWkpMaqqsq+vtb3naD4qKv5rrH5srX6u77GxtzNzeDW1uXZ2efa2ujd3er6wcTh4ezl5e/n5/Dp6fHz8/j19fn+8/T+9fb5+fv/+fn/+/wjCcvEAAAAAWJLR0QAiAUdSAAAAAlwSFlzAAAOxAAADsQBlSsOGwAABDhJREFUWIXt2V1vmzwUAGBAlmWRRKBEAmQtHcs+CG3SdktQmVCWXvj//6b3GAyxjQMO3dvd1BdtPgpPzrF9bKfOZv3ebeOsP713W3+YH+Y/M2Mav7MZ0x/PPyaq08yYfv/NGPv9fZI6xRQim6rebkriRPVW8yIes+NE9TZTEpfIRctp6i2mJK6Qiwl20WqKam/G9JsQCy42DdRCqN+sVVvzIh5XuBVrFXex2qp2pixCP2K5ISnDdqqNCeKvNquQTYLVRiDTbYZ/2ajjpiRGWIvxEiuO7NUxU4vRKArVOtZhU4tRz6qeYctYh8yYbjqRDItCJZ26GVCvmzH9KsU44hn69etV9ZqZSDHyfkRu3ZlINPFIExFS1A1NbjCpKhKEgihaIER80QhufnoyW79CVJVamkmy+dlc9ML7EQLw9/DkvCN+Udatyhf172IXeF2U86KsVl6dYRK9NDf4uUn6sfZNqotwk0Pzwm7GRNsH4sE5bFG0gKeRK/pVVvVYdROyqosYhYydggiAYH8secKLLTf3uzMUQwQJ5vUQLc6d2YymTtUyrJowcp6FmF1mhwvci+uCFrruCt5ceB58DBY4D/BhfBQdjjl0uWLWMycT6rM6mmQziVMhlhmRao635Hn1/UXgI2G63AydnJsZO/1h955mNhnOSqGmcWIwafLFKMK1mI/DKnJhneYxswWq41zOII4KH9kyYiXyeqaqfun6tTNpKmZH1VutYEjWF+59pJinM48fElyUbOf242xUtKrEzEmpbt49vdZvnTK/V8vderKwHcKyydtx5nDr4LumOLnpZ6f6L1+f7nTzE43vHhu1yjWV+Bit+JVzJJu7fBtiz+cTKYyO4dyUWz9vonx9vIt7ua3VtVH1MigCTvAHbu3JZuC4HvIeWHlgZcXCWX8MXcR1fJkv6lzRYm3nCgzPg4Mq3Qx5icIvbIvhrRLP9bliitFYE+K2X6ttq9bzYwtz8azmlpcgPqZ3TsZY7sj9ycVt1fZjPFQTDCrPERHjXRtDddlz76Euwd0rf86k2nddNNf4XqxofoAYyhyi8pZQ2WGFCaDCB80Huj+x08OhymewACy9kRivmVz9rKgIzYNFEzTxSZ1wAoO5icmbwVuwkBHe1Bg/G8Tra7am4ssKLR5IK7ZYw8WaPSYO7U101abZiMN7MK6Kepj5VnswPxN1bkAc22vSJBWqXvdNMXb1/CntrdP2Jo81bTNsqMNKVrM2q+lAjDZmo7IRVc7qmGh3RqLqWm44I8lr85hoexak1LyD0PrxOTXuLaeZPFbzLkLZCVjEeIsJZ4mkl2E1q4ad7FvN3j6UKLtYq6zebspqyc9NUTlBvP07KRq3apEXrWjZj1PNet8t1DZG236cbsqntmsnr79vdqfTqyfM/8Osv2l4tP/m6++YfDTdntW3mtPbh/lhvt38B/9z/Q+gGWVALuNCqgAAAABJRU5ErkJggg==;" vertex="1" parent="6">
                    <mxGeometry x="60" y="1400" width="120" height="68.87" as="geometry"/>
                </mxCell>
                <mxCell id="101" value="&lt;b&gt;PCS Material Center&lt;/b&gt;" style="text;html=1;strokeColor=none;fillColor=none;align=center;verticalAlign=middle;whiteSpace=wrap;rounded=0;strokeWidth=1;fontFamily=Arial;fontSource=https%3A%2F%2Ffonts.googleapis.com%2Fcss%3Ffamily%3DArial;fontSize=18;" vertex="1" parent="6">
                    <mxGeometry x="40" y="1490" width="200" height="30" as="geometry"/>
                </mxCell>
                <mxCell id="102" value="Version 1.0" style="text;html=1;strokeColor=none;fillColor=none;align=center;verticalAlign=middle;whiteSpace=wrap;rounded=0;strokeWidth=1;fontFamily=Arial;fontSource=https%3A%2F%2Ffonts.googleapis.com%2Fcss%3Ffamily%3DArial;fontSize=18;" vertex="1" parent="6">
                    <mxGeometry x="40" y="1530" width="120" height="30" as="geometry"/>
                </mxCell>
                <mxCell id="108" style="edgeStyle=elbowEdgeStyle;html=1;exitX=0.5;exitY=1;exitDx=0;exitDy=0;entryX=0.5;entryY=0;entryDx=0;entryDy=0;fontFamily=Arial;fontSource=https%3A%2F%2Ffonts.googleapis.com%2Fcss%3Ffamily%3DArial;fontSize=18;" edge="1" parent="6" source="106" target="71">
                    <mxGeometry relative="1" as="geometry"/>
                </mxCell>
                <mxCell id="106" value="&lt;span style=&quot;font-size: 18px;&quot;&gt;Request By Matching&amp;nbsp;&lt;br&gt;&lt;/span&gt;" style="rounded=1;whiteSpace=wrap;html=1;absoluteArcSize=1;arcSize=14;strokeWidth=1;fontFamily=Arial;fontSource=https%3A%2F%2Ffonts.googleapis.com%2Fcss%3Ffamily%3DArial;fontSize=20;" vertex="1" parent="6">
                    <mxGeometry x="200" y="840" width="190" height="60" as="geometry"/>
                </mxCell>
                <mxCell id="117" style="edgeStyle=orthogonalEdgeStyle;html=1;exitX=1;exitY=0.5;exitDx=0;exitDy=0;entryX=0;entryY=0.5;entryDx=0;entryDy=0;fontFamily=Arial;fontSource=https%3A%2F%2Ffonts.googleapis.com%2Fcss%3Ffamily%3DArial;fontSize=18;startArrow=none;startFill=0;endArrow=classic;endFill=1;" edge="1" parent="6" source="107" target="114">
                    <mxGeometry relative="1" as="geometry"/>
                </mxCell>
                <mxCell id="107" value="&lt;span style=&quot;font-size: 18px;&quot;&gt;Request By Transfer&amp;nbsp;&lt;br&gt;&lt;/span&gt;" style="rounded=1;whiteSpace=wrap;html=1;absoluteArcSize=1;arcSize=14;strokeWidth=1;fontFamily=Arial;fontSource=https%3A%2F%2Ffonts.googleapis.com%2Fcss%3Ffamily%3DArial;fontSize=20;" vertex="1" parent="6">
                    <mxGeometry x="580" y="880" width="190" height="60" as="geometry"/>
                </mxCell>
                <mxCell id="118" style="edgeStyle=orthogonalEdgeStyle;html=1;exitX=1;exitY=0.5;exitDx=0;exitDy=0;entryX=0.5;entryY=1;entryDx=0;entryDy=0;fontFamily=Arial;fontSource=https%3A%2F%2Ffonts.googleapis.com%2Fcss%3Ffamily%3DArial;fontSize=18;startArrow=none;startFill=0;endArrow=classic;endFill=1;" edge="1" parent="6" source="112" target="114">
                    <mxGeometry relative="1" as="geometry"/>
                </mxCell>
                <mxCell id="112" value="&lt;span style=&quot;font-size: 18px;&quot;&gt;Request By General&amp;nbsp;&lt;br&gt;&lt;/span&gt;" style="rounded=1;whiteSpace=wrap;html=1;absoluteArcSize=1;arcSize=14;strokeWidth=1;fontFamily=Arial;fontSource=https%3A%2F%2Ffonts.googleapis.com%2Fcss%3Ffamily%3DArial;fontSize=20;" vertex="1" parent="6">
                    <mxGeometry x="580" y="960" width="190" height="60" as="geometry"/>
                </mxCell>
                <mxCell id="114" value="" style="ellipse;whiteSpace=wrap;html=1;aspect=fixed;strokeWidth=1;fontFamily=Arial;fontSource=https%3A%2F%2Ffonts.googleapis.com%2Fcss%3Ffamily%3DArial;fontSize=18;" vertex="1" parent="6">
                    <mxGeometry x="880" y="895" width="30" height="30" as="geometry"/>
                </mxCell>
                <mxCell id="115" style="edgeStyle=orthogonalEdgeStyle;html=1;exitX=0.5;exitY=0;exitDx=0;exitDy=0;fontFamily=Arial;fontSource=https%3A%2F%2Ffonts.googleapis.com%2Fcss%3Ffamily%3DArial;fontSize=18;startArrow=classicThin;startFill=1;endArrow=none;endFill=0;entryX=1;entryY=0.5;entryDx=0;entryDy=0;" edge="1" parent="6" source="114" target="37">
                    <mxGeometry relative="1" as="geometry">
                        <mxPoint x="850" y="910" as="targetPoint"/>
                    </mxGeometry>
                </mxCell>
                <mxCell id="119" style="edgeStyle=elbowEdgeStyle;html=1;exitX=1;exitY=0.5;exitDx=0;exitDy=0;fontFamily=Arial;fontSource=https%3A%2F%2Ffonts.googleapis.com%2Fcss%3Ffamily%3DArial;fontSize=18;startArrow=none;startFill=0;endArrow=classic;endFill=1;entryX=1;entryY=0.5;entryDx=0;entryDy=0;" edge="1" parent="6" source="114" target="73">
                    <mxGeometry relative="1" as="geometry">
                        <mxPoint x="920.0000000000002" y="1120" as="targetPoint"/>
                        <Array as="points">
                            <mxPoint x="940" y="1040"/>
                        </Array>
                    </mxGeometry>
                </mxCell>
                <mxCell id="109" value="" style="endArrow=none;html=1;fontFamily=Arial;fontSource=https%3A%2F%2Ffonts.googleapis.com%2Fcss%3Ffamily%3DArial;fontSize=18;exitX=0.5;exitY=1;exitDx=0;exitDy=0;" edge="1" parent="1" source="33">
                    <mxGeometry width="50" height="50" relative="1" as="geometry">
                        <mxPoint x="540" y="970" as="sourcePoint"/>
                        <mxPoint x="580" y="1030" as="targetPoint"/>
                    </mxGeometry>
                </mxCell>
                <mxCell id="110" style="html=1;exitX=0;exitY=0.5;exitDx=0;exitDy=0;fontFamily=Arial;fontSource=https%3A%2F%2Ffonts.googleapis.com%2Fcss%3Ffamily%3DArial;fontSize=18;endArrow=none;endFill=0;startArrow=classicThin;startFill=1;" edge="1" parent="1" source="37">
                    <mxGeometry relative="1" as="geometry">
                        <mxPoint x="580" y="870" as="targetPoint"/>
                    </mxGeometry>
                </mxCell>
                <mxCell id="111" style="edgeStyle=none;html=1;exitX=0;exitY=0.5;exitDx=0;exitDy=0;fontFamily=Arial;fontSource=https%3A%2F%2Ffonts.googleapis.com%2Fcss%3Ffamily%3DArial;fontSize=18;startArrow=classicThin;startFill=1;endArrow=none;endFill=0;" edge="1" parent="1" source="107">
                    <mxGeometry relative="1" as="geometry">
                        <mxPoint x="580" y="950" as="targetPoint"/>
                    </mxGeometry>
                </mxCell>
                <mxCell id="113" style="edgeStyle=none;html=1;exitX=0;exitY=0.5;exitDx=0;exitDy=0;fontFamily=Arial;fontSource=https%3A%2F%2Ffonts.googleapis.com%2Fcss%3Ffamily%3DArial;fontSize=18;startArrow=classicThin;startFill=1;endArrow=none;endFill=0;" edge="1" parent="1" source="112">
                    <mxGeometry relative="1" as="geometry">
                        <mxPoint x="580" y="1030" as="targetPoint"/>
                    </mxGeometry>
                </mxCell>
                <mxCell id="120" style="edgeStyle=elbowEdgeStyle;html=1;exitX=1;exitY=0.5;exitDx=0;exitDy=0;fontFamily=Arial;fontSource=https%3A%2F%2Ffonts.googleapis.com%2Fcss%3Ffamily%3DArial;fontSize=18;startArrow=classic;startFill=1;endArrow=none;endFill=0;" edge="1" parent="1" source="106">
                    <mxGeometry relative="1" as="geometry">
                        <mxPoint x="580" y="910.0344827586207" as="targetPoint"/>
                    </mxGeometry>
                </mxCell>
            </root>
        </mxGraphModel>
    </diagram>
</mxfile>